<svg width="96" height="96" xmlns="http://www.w3.org/2000/svg" xmlns:xlink="http://www.w3.org/1999/xlink" xml:space="preserve" overflow="hidden"><g transform="translate(-394 -43)"><path d="M472.5 60.5 471.5 51.5 460.5 62.5 461.1 67.7 445.1 83.7C443.7 83 442.1 82.5 440.4 82.5 434.9 82.5 430.4 87 430.4 92.5 430.4 98 434.9 102.5 440.4 102.5 445.9 102.5 450.4 98 450.4 92.5 450.4 90.8 450 89.3 449.3 87.9L465.3 71.9 470.5 72.5 481.5 61.5 472.5 60.5Z" fill="#29ABE2"/><path d="M473.3 75.3 472 76.7 470.1 76.5 468 76.2C470.8 81 472.5 86.5 472.5 92.5 472.5 110.1 458.1 124.5 440.5 124.5 422.9 124.5 408.5 110.1 408.5 92.5 408.5 74.9 422.9 60.5 440.5 60.5 446.4 60.5 452 62.1 456.8 65L456.6 63 456.3 61 457.7 59.6 458.4 58.9C453 56.1 447 54.5 440.5 54.5 419.5 54.5 402.5 71.5 402.5 92.5 402.5 113.5 419.5 130.5 440.5 130.5 461.5 130.5 478.5 113.5 478.5 92.5 478.5 86 476.9 80 474 74.7L473.3 75.3Z" fill="#29ABE2"/><path d="M457.2 85.7C458.1 87.8 458.5 90.1 458.5 92.5 458.5 102.4 450.4 110.5 440.5 110.5 430.6 110.5 422.5 102.4 422.5 92.5 422.5 82.6 430.6 74.5 440.5 74.5 442.9 74.5 445.2 75 447.3 75.8L451.8 71.3C448.4 69.5 444.6 68.5 440.5 68.5 427.3 68.5 416.5 79.3 416.5 92.5 416.5 105.7 427.3 116.5 440.5 116.5 453.7 116.5 464.5 105.7 464.5 92.5 464.5 88.4 463.5 84.6 461.7 81.2L457.2 85.7Z" fill="#29ABE2"/></g></svg>