<svg width="96" height="96" xmlns="http://www.w3.org/2000/svg" xmlns:xlink="http://www.w3.org/1999/xlink" xml:space="preserve" overflow="hidden"><g transform="translate(-666 -43)"><path d="M739.044 67.861C737.026 66.9869 734.857 66.515 732.659 66.472 731.804 66.4457 730.95 66.5568 730.13 66.801L719.089 93.743C719.9 93.5041 720.744 93.3958 721.589 93.422 723.797 93.4659 725.974 93.9401 728 94.818 734.265 97.385 738.763 103.668 747.083 103.668 747.709 103.668 748.334 103.635 748.956 103.568L760 76.608C748.742 76.092 745.763 70.614 739.044 67.861ZM735.975 96.054C735.792 95.928 735.605 95.802 735.421 95.676L738.154 89.005 737.388 88.516C735.695 87.3839 733.928 86.3653 732.1 85.467L729.363 92.147C729.286 92.115 729.215 92.074 729.138 92.047 727.38 91.3098 725.532 90.8087 723.643 90.557L726.425 83.769C728.043 83.9634 729.625 84.3852 731.125 85.022 731.462 85.16 731.779 85.322 732.101 85.472L734.966 78.481C734.645 78.333 734.317 78.19 733.981 78.052 732.484 77.433 730.928 76.9689 729.336 76.667L732.279 69.485C732.398 69.485 732.527 69.477 732.664 69.477 734.472 69.5219 736.254 69.9172 737.911 70.641 737.989 70.673 738.059 70.713 738.136 70.741L734.966 78.477C737.077 79.4824 739.112 80.6394 741.055 81.939L744.179 74.316C746.103 75.6407 748.161 76.7595 750.319 77.654L747.141 85.409C745.107 84.4404 743.144 83.3283 741.268 82.081L741.047 81.939 738.159 89.006C740.109 90.2928 742.151 91.4332 744.269 92.418L741.419 99.36C739.512 98.4173 737.691 97.3111 735.975 96.054ZM745.241 92.826C744.908 92.689 744.604 92.541 744.286 92.397L747.147 85.441C748.839 86.2073 750.607 86.7925 752.422 87.187L749.535 94.234C748.073 93.8651 746.638 93.3946 745.241 92.826Z" fill="#29ABE2"/><path d="M709.079 93.743 698.039 66.8C697.219 66.5558 696.365 66.4447 695.51 66.471 693.312 66.514 691.143 66.9859 689.125 67.86 682.405 70.613 679.425 76.091 668.169 76.607L679.216 103.565C679.838 103.632 680.463 103.665 681.088 103.665 689.408 103.665 693.907 97.382 700.172 94.815 702.198 93.9355 704.375 93.46 706.583 93.415 707.427 93.3913 708.27 93.5021 709.079 93.743ZM678.634 94.234 675.746 87.187C677.564 86.7917 679.334 86.2054 681.029 85.438L683.859 92.408C683.549 92.548 683.253 92.693 682.928 92.826 681.531 93.3943 680.096 93.8648 678.634 94.234ZM699.034 92.042C698.957 92.074 698.886 92.115 698.81 92.142L696.072 85.462C694.243 86.3604 692.475 87.379 690.78 88.511L690.014 89 692.748 95.671C692.564 95.797 692.376 95.923 692.193 96.049 690.477 97.3063 688.656 98.4125 686.749 99.355L683.91 92.432C686.024 91.4407 688.063 90.2952 690.01 89.005L687.11 81.938 686.889 82.08C685.017 83.3305 683.058 84.4453 681.027 85.416L677.846 77.653C680.004 76.7587 682.062 75.6399 683.986 74.315L687.11 81.938C689.054 80.6386 691.089 79.4816 693.199 78.476L690.029 70.74C690.106 70.708 690.177 70.668 690.254 70.64 691.912 69.9161 693.694 69.5208 695.502 69.476 695.639 69.476 695.767 69.476 695.887 69.484L698.83 76.666C697.238 76.9677 695.682 77.4318 694.185 78.051 693.848 78.189 693.519 78.332 693.199 78.48L696.064 85.471C696.387 85.318 696.704 85.159 697.041 85.021 698.541 84.3841 700.123 83.9622 701.741 83.768L704.523 90.556C702.636 90.8066 700.79 91.3063 699.034 92.042Z" fill="#29ABE2"/><path d="M716.246 92.524 727.274 65.613C727.665 64.5799 727.144 63.4255 726.111 63.0346 725.118 62.6586 724.003 63.1251 723.574 64.097L714.084 87.25 704.6 64.1C704.209 63.0669 703.055 62.5464 702.022 62.9373 700.989 63.3283 700.468 64.4826 700.859 65.5157 700.872 65.5495 700.885 65.583 700.9 65.616L711.923 92.524 701.794 117.241C701.351 118.253 701.813 119.432 702.825 119.875 703.837 120.318 705.016 119.856 705.459 118.844 705.471 118.816 705.483 118.787 705.494 118.758L714.084 97.8 722.674 118.76C723.117 119.772 724.296 120.233 725.308 119.791 726.287 119.362 726.756 118.241 726.374 117.243Z" fill="#29ABE2"/></g></svg>