<svg width="96" height="96" xmlns="http://www.w3.org/2000/svg" xmlns:xlink="http://www.w3.org/1999/xlink" xml:space="preserve" overflow="hidden"><g transform="translate(-521 -272)"><path d="M568.9 353C553.4 353 540.9 340.5 540.9 325 540.9 309.5 553.4 297 568.9 297 584.4 297 596.9 309.5 596.9 325L596.9 325C597 340.5 584.5 353 568.9 353ZM592.6 300.6 595.6 297.6C596.7 296.4 596.7 294.5 595.5 293.4 594.3 292.3 592.5 292.2 591.3 293.3L587.9 296.8C583.1 293.6 577.6 291.6 571.9 291.2L571.9 287 580.9 287 580.9 281 556.9 281 556.9 287 565.9 287 565.9 291.1C547.1 292.7 533.3 309.3 534.9 328 536.5 346.7 553.1 360.6 571.8 359 590.5 357.4 604.4 340.8 602.8 322.1 602.2 313.9 598.5 306.3 592.6 300.6Z" fill="#29ABE2"/><path d="M570.9 325 570.9 301.1C570.2 301 569.6 301 568.9 301 568.2 301 567.6 301 566.9 301.1L566.9 325 570.9 325Z" fill="#29ABE2"/></g></svg>