<svg width="96" height="96" xmlns="http://www.w3.org/2000/svg" xmlns:xlink="http://www.w3.org/1999/xlink" xml:space="preserve" overflow="hidden"><g transform="translate(-523 -158)"><path d="M596.3 171.994 599 171.994 599 166 543.03 166 543.03 172 545.63 172C546.73 183.093 553.13 199.285 562.421 205.981 553.126 212.681 546.63 228.868 545.63 239.962L543.03 239.962 543.03 245.962 599 245.962 599 239.962 596.3 239.962C595.3 228.868 588.8 212.677 579.509 205.981 588.805 199.279 595.3 183.087 596.3 171.994ZM590.27 171.994C589.718 176.458 588.585 180.83 586.9 185L555.1 185C553.415 180.828 552.262 176.46 551.669 172ZM565.926 210.843C566.318 210.561 566.673 210.233 566.986 209.865L569.03 212.481 569.03 230 559.077 239.953 551.657 239.953C552.718 230 558.607 216.116 565.926 210.843ZM590.271 239.953 582.983 239.953 573.03 230 573.03 212.41 574.987 209.91C575.289 210.258 575.629 210.57 576.002 210.84 583.322 216.116 589.211 230 590.271 239.953Z" fill="#29ABE2"/></g></svg>