<svg width="96" height="96" xmlns="http://www.w3.org/2000/svg" xmlns:xlink="http://www.w3.org/1999/xlink" xml:space="preserve" overflow="hidden"><g transform="translate(-238 -41)"><path d="M286 94.4C279.5 94.4 274.2 99.7 274.2 106.2 274.2 112.7 279.5 118.1 286 118.1 292.5 118.1 297.8 112.8 297.8 106.3 297.8 99.8 292.5 94.4 286 94.4" fill="#29ABE2"/><path d="M286 84.3C273.9 84.3 264 94.2 264 106.3 264 118.4 273.9 128.3 286 128.3 298.1 128.3 308 118.4 308 106.3 308 94.2 298.1 84.3 286 84.3M286 122.3C277.2 122.3 270 115.1 270 106.3 270 97.5 277.2 90.3 286 90.3 294.8 90.3 302 97.5 302 106.3 302 115.1 294.8 122.3 286 122.3" fill="#29ABE2"/><path d="M291.4 80.8C295.4 81.7 299.1 83.4 302.3 85.9L314.6 58.1 309 49.7 305.4 49.7 297.6 66.8 291.4 80.8Z" fill="#29ABE2"/><path d="M280.6 80.8 274.4 66.8 266.6 49.7 263 49.7 257.5 58.1 269.8 85.9C272.9 83.5 276.6 81.7 280.6 80.8" fill="#29ABE2"/><path d="M295.5 61.8 301 49.8 271 49.8 276.5 61.8Z" fill="#29ABE2"/></g></svg>