<svg width="96" height="96" xmlns="http://www.w3.org/2000/svg" xmlns:xlink="http://www.w3.org/1999/xlink" xml:space="preserve" overflow="hidden"><g transform="translate(-394 -148)"><path d="M442 228C424.4 228 410 213.6 410 196 410 178.4 424.4 164 442 164 459.6 164 474 178.4 474 196 474 213.6 459.6 228 442 228ZM442 158C421 158 404 175 404 196 404 217 421 234 442 234 463 234 480 217 480 196 480 175 463 158 442 158Z" fill="#29ABE2"/><path d="M444 176 440 176 440 196C440 196.6 440.2 197.1 440.6 197.4L454.7 211.5 457.5 208.7 444 195.2 444 176Z" fill="#29ABE2"/><path d="M444 170C444 171.105 443.105 172 442 172 440.895 172 440 171.105 440 170 440 168.895 440.895 168 442 168 443.105 168 444 168.895 444 170Z" fill="#29ABE2"/><path d="M444 222C444 223.105 443.105 224 442 224 440.895 224 440 223.105 440 222 440 220.895 440.895 220 442 220 443.105 220 444 220.895 444 222Z" fill="#29ABE2"/><path d="M418 196C418 197.105 417.105 198 416 198 414.895 198 414 197.105 414 196 414 194.895 414.895 194 416 194 417.105 194 418 194.895 418 196Z" fill="#29ABE2"/><path d="M470 196C470 197.105 469.105 198 468 198 466.895 198 466 197.105 466 196 466 194.895 466.895 194 468 194 469.105 194 470 194.895 470 196Z" fill="#29ABE2"/></g></svg>