<svg width="96" height="96" xmlns="http://www.w3.org/2000/svg" xmlns:xlink="http://www.w3.org/1999/xlink" xml:space="preserve" overflow="hidden"><g transform="translate(-384 -272)"><path d="M474.6 352 435.5 284C434 281.3 430.1 281.3 428.6 284L389.4 352C387.9 354.7 389.8 358 392.9 358L432 358 471.1 358C474.2 358 476.1 354.7 474.6 352ZM429 300 435 300 435 335 429 335 429 300ZM432 349C429.2 349 427 346.8 427 344 427 341.2 429.2 339 432 339 434.8 339 437 341.2 437 344 437 346.8 434.8 349 432 349Z" fill="#29ABE2"/></g></svg>