<svg width="96" height="96" xmlns="http://www.w3.org/2000/svg" xmlns:xlink="http://www.w3.org/1999/xlink" xml:space="preserve" overflow="hidden"><g transform="translate(-523 -43)"><path d="M571 99C566.582 99 563 95.4183 563 91 563 86.5817 566.582 83 571 83 575.418 83 579 86.5817 579 91 579 95.4183 575.418 99 571 99ZM571 87C568.791 87 567 88.7909 567 91 567 93.2091 568.791 95 571 95 573.209 95 575 93.2091 575 91 575 88.7909 573.209 87 571 87Z" fill="#29ABE2"/><path d="M606 89C604.951 71.227 590.773 57.0486 573 56L573 50 569 50 569 56C551.227 57.0486 537.049 71.227 536 89L530 89 530 93 536 93C537.049 110.773 551.227 124.951 569 126L569 132 573 132 573 126C590.773 124.951 604.951 110.773 606 93L612 93 612 89ZM591.16 93C590.199 102.603 582.603 110.199 573 111.16L573 103 569 103 569 111.16C559.397 110.199 551.801 102.603 550.84 93L559 93 559 89 550.84 89C551.801 79.3966 559.397 71.801 569 70.84L569 79 573 79 573 70.84C582.603 71.801 590.199 79.3966 591.16 89L583 89 583 93ZM569 62 569 66.83C557.189 67.822 547.817 77.1898 546.82 89L542 89C543.028 74.5357 554.536 63.0284 569 62ZM542 93 546.83 93C547.822 104.811 557.19 114.183 569 115.18L569 120C554.536 118.972 543.028 107.464 542 93ZM573 120 573 115.18C584.814 114.187 594.187 104.814 595.18 93L600 93C598.972 107.464 587.464 118.972 573 120ZM595.18 89C594.187 77.1859 584.814 67.8127 573 66.82L573 62C587.464 63.0284 598.972 74.5357 600 89Z" fill="#29ABE2"/></g></svg>