<svg width="325" height="325" xmlns="http://www.w3.org/2000/svg" xmlns:xlink="http://www.w3.org/1999/xlink" xml:space="preserve" overflow="hidden"><defs><clipPath id="clip0"><path d="M2362.5 1047.54C2317.05 1047.54 2280.21 1084.38 2280.21 1129.83 2280.21 1175.28 2317.05 1212.13 2362.5 1212.13 2407.95 1212.13 2444.79 1175.28 2444.79 1129.83 2444.79 1084.38 2407.95 1047.54 2362.5 1047.54ZM2200 951 2525 951 2525 1276 2200 1276Z" fill-rule="evenodd" clip-rule="evenodd"/></clipPath></defs><g transform="translate(-2200 -951)"><g clip-path="url(#clip0)"><path d="M2369.27 1062.72C2369.27 1066.46 2366.24 1069.49 2362.5 1069.49 2358.76 1069.49 2355.73 1066.46 2355.73 1062.72 2355.73 1058.98 2358.76 1055.95 2362.5 1055.95 2366.24 1055.95 2369.27 1058.98 2369.27 1062.72Z" fill="#29ABE2"/><path d="M2369.27 1198.14C2369.27 1201.87 2366.24 1204.91 2362.5 1204.91 2358.76 1204.91 2355.73 1201.87 2355.73 1198.14 2355.73 1194.4 2358.76 1191.36 2362.5 1191.36 2366.24 1191.36 2369.27 1194.4 2369.27 1198.14Z" fill="#29ABE2"/><path d="M2436.98 1127.04C2436.98 1130.78 2433.95 1133.81 2430.21 1133.81 2426.47 1133.81 2423.44 1130.78 2423.44 1127.04 2423.44 1123.3 2426.47 1120.27 2430.21 1120.27 2433.95 1120.27 2436.98 1123.3 2436.98 1127.04Z" fill="#29ABE2"/><path d="M2301.56 1127.04C2301.56 1130.78 2298.53 1133.81 2294.79 1133.81 2291.05 1133.81 2288.02 1130.78 2288.02 1127.04 2288.02 1123.3 2291.05 1120.27 2294.79 1120.27 2298.53 1120.27 2301.56 1123.3 2301.56 1127.04Z" fill="#29ABE2"/><path d="M2369.27 1079.65 2355.73 1079.65 2355.73 1127.04C2355.73 1128.73 2356.41 1130.43 2357.76 1131.78L2391.28 1165.3 2400.76 1155.82 2369.27 1124.33 2369.27 1079.65Z" fill="#29ABE2"/><path d="M2362.5 1225.22C2310.03 1225.22 2267.71 1182.9 2267.71 1130.43 2267.71 1077.95 2310.03 1035.64 2362.5 1035.64 2414.97 1035.64 2457.29 1077.95 2457.29 1130.43 2457.29 1182.9 2414.97 1225.22 2362.5 1225.22L2362.5 1225.22ZM2442.73 1047.82 2452.89 1037.67C2456.61 1033.6 2456.61 1027.51 2452.55 1023.45 2448.83 1019.72 2442.4 1019.39 2438.33 1023.11L2426.82 1034.96C2410.57 1024.13 2391.95 1017.35 2372.66 1016L2372.66 1001.78 2403.12 1001.78 2403.12 981.469 2321.88 981.469 2321.88 1001.78 2352.34 1001.78 2352.34 1015.66C2298.52 1020.4 2255.18 1062.04 2248.41 1115.87 2241.64 1169.7 2273.12 1220.82 2324.24 1238.76 2375.36 1256.7 2431.9 1237.07 2460.68 1191.03 2489.45 1144.98 2481.33 1085.4 2442.73 1047.82L2442.73 1047.82Z" fill="#29ABE2"/></g><path d="M2291.45 1118.24 2351.24 1118.24 2351.24 1058.45 2372.76 1058.45 2372.76 1118.24 2432.55 1118.24 2432.55 1139.76 2372.76 1139.76 2372.76 1199.55 2351.24 1199.55 2351.24 1139.76 2291.45 1139.76Z" fill="#29ABE2" fill-rule="evenodd"/></g></svg>