<svg width="1029" height="455" xmlns="http://www.w3.org/2000/svg" xmlns:xlink="http://www.w3.org/1999/xlink" xml:space="preserve" overflow="hidden"><defs><clipPath id="clip0"><rect x="2568" y="1733" width="1029" height="455"/></clipPath></defs><g clip-path="url(#clip0)" transform="translate(-2568 -1733)"><path d="M3050.17 1809.61 3048.42 1859.64 3061.4 1860.1 3063.15 1810.06ZM3026.99 1808.8 3025.24 1858.83 3038.23 1859.29 3039.97 1809.25ZM2877.67 1803.58 2875.92 1853.62 3015.05 1858.48 3016.8 1808.44ZM2572.13 1772.46 2694.48 1776.74 3063.93 1789.64 3064.41 1789.65 3064.41 1789.75 3081.5 1793.83C3097.57 1801.29 3108.45 1817.84 3107.79 1836.67 3107.13 1855.49 3095.12 1871.24 3078.57 1877.57L3061.24 1880.45 3061.24 1880.54 3060.76 1880.53 2691.3 1867.62 2568.96 1863.35Z" fill="#08222D" fill-rule="evenodd"/><path d="M3523.99 1860.39C3521.7 1860.5 3519.48 1861.06 3517.43 1862.11 3513.33 1864.22 3510.46 1868 3508.9 1872.74L3508.55 1881.68 3519.53 1901.92 3525.07 1919.76 3533.45 1926.1C3538.1 1927.9 3542.85 1928.08 3547.08 1926.24 3551.31 1924.41 3554.43 1920.83 3556.29 1916.2L3556.68 1912.48 3549.48 1889.27 3536.16 1864.73 3531.04 1861.36C3528.66 1860.62 3526.29 1860.28 3523.99 1860.39ZM3383.45 1765.5 3375.19 1768.89 3368.88 1779.34 3368.88 1782.98 3372.12 1793.6 3377.21 1797.37 3401.1 1799.78C3428.87 1805.46 3454.06 1818.23 3474.69 1836.1L3479.88 1841.42 3486.36 1842.98 3490.14 1841.37 3501.99 1828.67 3503.33 1824.75 3500.66 1816.34 3495.96 1811.53C3471.2 1790.08 3440.97 1774.76 3407.65 1767.94ZM3369.5 1733C3495.14 1733 3597 1834.86 3597 1960.5 3597 2086.14 3495.14 2188 3369.5 2188 3243.86 2188 3142 2086.14 3142 1960.5 3142 1834.86 3243.86 1733 3369.5 1733Z" fill="#08222D" fill-rule="evenodd"/></g></svg>