<svg width="330" height="330" xmlns="http://www.w3.org/2000/svg" xmlns:xlink="http://www.w3.org/1999/xlink" xml:space="preserve" overflow="hidden"><g transform="translate(-2155 -1685)"><path d="M2320 1740C2380.75 1740 2430 1789.25 2430 1850 2430 1910.75 2380.75 1960 2320 1960 2259.25 1960 2210 1910.75 2210 1850 2210.07 1789.28 2259.28 1740.07 2320 1740M2320 1719.38C2247.86 1719.38 2189.38 1777.86 2189.38 1850 2189.38 1922.14 2247.86 1980.63 2320 1980.63 2392.14 1980.63 2450.62 1922.14 2450.62 1850 2450.62 1777.86 2392.14 1719.38 2320 1719.38Z" stroke="#08222D" stroke-width="3.4375" fill="#08222D"/><path d="M2301.5 1773.5C2301.5 1765.77 2310.23 1759.5 2321 1759.5 2331.77 1759.5 2340.5 1765.77 2340.5 1773.5 2340.5 1781.23 2331.77 1787.5 2321 1787.5 2310.23 1787.5 2301.5 1781.23 2301.5 1773.5Z" stroke="#08222D" stroke-width="4.58333" stroke-miterlimit="8" fill="#08222D" fill-rule="evenodd"/><path d="M2248.49 1886.59C2254.46 1881.9 2264.65 1884.91 2271.24 1893.3 2277.84 1901.7 2278.35 1912.31 2272.37 1917 2266.4 1921.69 2256.21 1918.69 2249.62 1910.29 2243.02 1901.89 2242.51 1891.28 2248.49 1886.59Z" stroke="#08222D" stroke-width="4.58333" stroke-miterlimit="8" fill="#08222D" fill-rule="evenodd"/><path d="M2396.62 1886.96C2402.46 1891.81 2401.67 1902.4 2394.84 1910.62 2388.02 1918.84 2377.76 1921.56 2371.91 1916.71 2366.07 1911.86 2366.87 1901.27 2373.69 1893.05 2380.51 1884.84 2390.78 1882.11 2396.62 1886.96Z" stroke="#08222D" stroke-width="4.58333" stroke-miterlimit="8" fill="#08222D" fill-rule="evenodd"/></g></svg>